<?xml version="1.0"?>
<svg xmlns="http://www.w3.org/2000/svg" xmlns:xlink="http://www.w3.org/1999/xlink" version="1.1" viewBox="0 0 252 252" width="128px" height="128px"><g transform="translate(25.2,25.2) scale(0.8,0.8)"><g fill="none" fill-rule="nonzero" stroke="none" stroke-width="1" stroke-linecap="butt" stroke-linejoin="miter" stroke-miterlimit="10" stroke-dasharray="" stroke-dashoffset="0" font-family="none" font-weight="none" font-size="none" text-anchor="none" style="mix-blend-mode: normal"><path d="M0,252v-252h252v252z" fill="none"/><g><g id="surface1"><path d="M19.6875,90.5625v102.375c0,4.35278 -3.52222,7.875 -7.875,7.875c-2.0918,-0.01538 -4.07593,-0.84595 -5.55249,-2.32251c-1.47656,-1.47656 -2.30713,-3.46069 -2.32251,-5.55249v-102.375c0,-4.35278 3.52222,-7.875 7.875,-7.875c2.0918,0.01538 4.07593,0.84595 5.55249,2.32251c1.47656,1.47656 2.30713,3.46069 2.32251,5.55249z" fill="#c2cde7"/><path d="M19.6875,90.5625v27.5625h-15.75v-27.5625c0,-4.35278 3.52222,-7.875 7.875,-7.875c2.0918,0.01538 4.07593,0.84595 5.55249,2.32251c1.47656,1.47656 2.30713,3.46069 2.32251,5.55249z" fill="#ced8ed"/><path d="M19.6875,165.375v27.5625c0,4.35278 -3.52222,7.875 -7.875,7.875c-2.0918,-0.01538 -4.07593,-0.84595 -5.55249,-2.32251c-1.47656,-1.47656 -2.30713,-3.46069 -2.32251,-5.55249v-27.5625z" fill="#acb7d0"/><path d="M232.3125,90.5625h-11.8125c-2.1687,0 -3.9375,1.7688 -3.9375,3.9375v27.5625h-15.75v-63c0,-4.35278 -3.52222,-7.875 -7.875,-7.875h-23.625v-15.75h23.625c4.35278,0 7.875,-3.52222 7.875,-7.875c0,-4.35278 -3.52222,-7.875 -7.875,-7.875h-70.875c-4.35278,0 -7.875,3.52222 -7.875,7.875c0,4.35278 3.52222,7.875 7.875,7.875h23.625v15.75h-25.99365c-3.56836,0 -7.04444,1.23047 -9.84375,3.46069l-30.7002,24.57862c-2.79932,2.23022 -6.27539,3.46069 -9.84375,3.46069h-25.99365c-4.35278,0 -7.875,3.52222 -7.875,7.875v102.375c0,4.35278 3.52222,7.875 7.875,7.875h10.24365c3.56836,0 7.04443,1.23047 9.84375,3.46069l30.74633,24.60938c2.78394,2.24561 6.26001,3.4607 9.84375,3.47608h51.94117c3.56836,-0.01538 7.04443,-1.23047 9.84375,-3.47608l29.13135,-23.302c3.73755,-2.99927 5.92163,-7.53662 5.90625,-12.33545v-23.93262h15.75v27.5625c0,2.1687 1.7688,3.9375 3.9375,3.9375h11.8125c8.70557,0 15.75,-7.04443 15.75,-15.75v-78.75c0,-8.70556 -7.04443,-15.75 -15.75,-15.75z" fill="#c2cde7"/><path d="M196.875,122.0625h23.625v47.25h-23.625z" fill="#acb7d0"/><path d="M63,200.8125h133.875l-35.4375,31.5h-63z" fill="#acb7d0"/><path d="M70.875,86.625h129.9375v-27.5625l-7.875,-7.875h-78.75z" fill="#ced8ed"/><path d="M19.6875,129.9375h15.75v23.625h-15.75z" fill="#acb7d0"/><path d="M76.42749,161.99121c0,4.64502 -3.76831,8.42871 -8.42871,8.42871c-4.64502,0 -8.42871,-3.78369 -8.42871,-8.42871c0,-4.6604 3.78369,-8.42871 8.42871,-8.42871c4.6604,0 8.42871,3.76831 8.42871,8.42871z" fill="#f9e3ae"/><path d="M232.3125,86.625h-11.8125c-4.35278,0 -7.875,3.52222 -7.875,7.875v23.625h-7.875v-59.0625c0,-6.52148 -5.29102,-11.8125 -11.8125,-11.8125h-19.6875v-7.875h19.6875c6.52148,0 11.8125,-5.29102 11.8125,-11.8125c0,-6.52148 -5.29102,-11.8125 -11.8125,-11.8125h-70.875c-6.52148,0 -11.8125,5.29102 -11.8125,11.8125c0,6.52148 5.29102,11.8125 11.8125,11.8125h19.6875v7.875h-22.05615c-4.46045,0.01538 -8.79785,1.53809 -12.27393,4.3374l-30.76172,24.60938c-2.0918,1.66113 -4.69116,2.55322 -7.35205,2.55322h-25.99365c-6.52148,0 -11.8125,5.29102 -11.8125,11.8125v35.4375h-7.875v-35.4375c0,-6.52148 -5.29102,-11.8125 -11.8125,-11.8125c-6.52148,0 -11.8125,5.29102 -11.8125,11.8125v102.375c0,6.52148 5.29102,11.8125 11.8125,11.8125c6.52148,0 11.8125,-5.29102 11.8125,-11.8125v-35.4375h7.875v35.4375c0,6.52148 5.29102,11.8125 11.8125,11.8125h10.24365c2.67627,0 5.27563,0.92285 7.35205,2.59936l30.76172,24.60938c3.49146,2.78394 7.81348,4.29126 12.27393,4.29126h51.9873c4.46045,-0.01538 8.79785,-1.53809 12.27392,-4.3374l29.14673,-23.2251c4.69116,-3.75293 7.41357,-9.42847 7.39819,-15.44238v-19.99512h7.875v23.625c0,4.35278 3.52222,7.875 7.875,7.875h11.8125c10.87427,0 19.6875,-8.81323 19.6875,-19.6875v-78.75c0,-10.87427 -8.81323,-19.6875 -19.6875,-19.6875zM145.6875,31.5h-23.625c-2.1687,0 -3.9375,-1.7688 -3.9375,-3.9375c0,-2.1687 1.7688,-3.9375 3.9375,-3.9375h70.875c2.1687,0 3.9375,1.7688 3.9375,3.9375c0,2.1687 -1.7688,3.9375 -3.9375,3.9375h-23.625c-2.1687,0 -3.9375,1.7688 -3.9375,3.9375v11.8125h-15.75v-11.8125c0,-2.1687 -1.7688,-3.9375 -3.9375,-3.9375zM15.75,192.9375c0,2.1687 -1.7688,3.9375 -3.9375,3.9375c-2.1687,0 -3.9375,-1.7688 -3.9375,-3.9375v-102.375c0,-2.1687 1.7688,-3.9375 3.9375,-3.9375c2.1687,0 3.9375,1.7688 3.9375,3.9375zM23.625,149.625v-15.75h7.875v15.75zM244.125,185.0625c0,6.52148 -5.29102,11.8125 -11.8125,11.8125h-11.8125v-27.5625c0,-2.1687 -1.7688,-3.9375 -3.9375,-3.9375h-15.75c-2.1687,0 -3.9375,1.7688 -3.9375,3.9375v23.93262c0,3.59912 -1.64575,6.98291 -4.44507,9.22852l-29.14673,23.302c-2.07642,1.67651 -4.67578,2.59936 -7.35205,2.59936h-51.9873c-2.67627,0 -5.27564,-0.92285 -7.35205,-2.59936l-26.30127,-21.02564h75.39697c2.1687,0 3.9375,-1.7688 3.9375,-3.9375c0,-2.1687 -1.7688,-3.9375 -3.9375,-3.9375h-102.375c-2.1687,0 -3.9375,-1.7688 -3.9375,-3.9375v-102.375c0,-2.1687 1.7688,-3.9375 3.9375,-3.9375h25.99365c4.46045,-0.01538 8.79785,-1.53809 12.27392,-4.3374l30.76172,-24.60937c2.0918,-1.66113 4.69116,-2.55322 7.35205,-2.55322h73.24365c2.1687,0 3.9375,1.7688 3.9375,3.9375v63c0,2.1687 1.7688,3.9375 3.9375,3.9375h15.75c2.1687,0 3.9375,-1.7688 3.9375,-3.9375v-27.5625h11.8125c6.52148,0 11.8125,5.29102 11.8125,11.8125z" fill="#8d6c9f"/><path d="M177.1875,196.875h-15.75c-2.1687,0 -3.9375,1.7688 -3.9375,3.9375c0,2.1687 1.7688,3.9375 3.9375,3.9375h15.75c2.1687,0 3.9375,-1.7688 3.9375,-3.9375c0,-2.1687 -1.7688,-3.9375 -3.9375,-3.9375z" fill="#8d6c9f"/><path d="M59.0625,118.125c2.1687,0 3.9375,-1.7688 3.9375,-3.9375v-7.875c0,-2.1687 -1.7688,-3.9375 -3.9375,-3.9375c-2.1687,0 -3.9375,1.7688 -3.9375,3.9375v7.875c0,2.1687 1.7688,3.9375 3.9375,3.9375z" fill="#8d6c9f"/><path d="M78.75,102.375c-2.1687,0 -3.9375,1.7688 -3.9375,3.9375v7.875c0,2.1687 1.7688,3.9375 3.9375,3.9375c2.1687,0 3.9375,-1.7688 3.9375,-3.9375v-7.875c0,-2.1687 -1.7688,-3.9375 -3.9375,-3.9375z" fill="#8d6c9f"/><path d="M98.4375,118.125c2.1687,0 3.9375,-1.7688 3.9375,-3.9375v-7.875c0,-2.1687 -1.7688,-3.9375 -3.9375,-3.9375c-2.1687,0 -3.9375,1.7688 -3.9375,3.9375v7.875c0,2.1687 1.7688,3.9375 3.9375,3.9375z" fill="#8d6c9f"/><path d="M122.0625,114.1875v-7.875c0,-2.1687 -1.7688,-3.9375 -3.9375,-3.9375c-2.1687,0 -3.9375,1.7688 -3.9375,3.9375v7.875c0,2.1687 1.7688,3.9375 3.9375,3.9375c2.1687,0 3.9375,-1.7688 3.9375,-3.9375z" fill="#8d6c9f"/><path d="M137.8125,118.125c2.1687,0 3.9375,-1.7688 3.9375,-3.9375v-7.875c0,-2.1687 -1.7688,-3.9375 -3.9375,-3.9375c-2.1687,0 -3.9375,1.7688 -3.9375,3.9375v7.875c0,2.1687 1.7688,3.9375 3.9375,3.9375z" fill="#8d6c9f"/><path d="M157.5,118.125c2.1687,0 3.9375,-1.7688 3.9375,-3.9375v-7.875c0,-2.1687 -1.7688,-3.9375 -3.9375,-3.9375c-2.1687,0 -3.9375,1.7688 -3.9375,3.9375v7.875c0,2.1687 1.7688,3.9375 3.9375,3.9375z" fill="#8d6c9f"/><path d="M177.1875,102.375c-2.1687,0 -3.9375,1.7688 -3.9375,3.9375v7.875c0,2.1687 1.7688,3.9375 3.9375,3.9375c2.1687,0 3.9375,-1.7688 3.9375,-3.9375v-7.875c0,-2.1687 -1.7688,-3.9375 -3.9375,-3.9375z" fill="#8d6c9f"/><path d="M66.9375,149.625c-6.52148,0 -11.8125,5.29102 -11.8125,11.8125c0,6.52148 5.29102,11.8125 11.8125,11.8125c6.52148,0 11.8125,-5.29102 11.8125,-11.8125c0,-6.52148 -5.29102,-11.8125 -11.8125,-11.8125zM66.9375,165.375c-2.1687,0 -3.9375,-1.7688 -3.9375,-3.9375c0,-2.1687 1.7688,-3.9375 3.9375,-3.9375c2.1687,0 3.9375,1.7688 3.9375,3.9375c0,2.1687 -1.7688,3.9375 -3.9375,3.9375z" fill="#8d6c9f"/><path d="M106.3125,157.5h-15.75c-2.1687,0 -3.9375,1.7688 -3.9375,3.9375c0,2.1687 1.7688,3.9375 3.9375,3.9375h15.75c2.1687,0 3.9375,-1.7688 3.9375,-3.9375c0,-2.1687 -1.7688,-3.9375 -3.9375,-3.9375z" fill="#8d6c9f"/><path d="M177.1875,157.5h-55.125c-2.1687,0 -3.9375,1.7688 -3.9375,3.9375c0,2.1687 1.7688,3.9375 3.9375,3.9375h55.125c2.1687,0 3.9375,-1.7688 3.9375,-3.9375c0,-2.1687 -1.7688,-3.9375 -3.9375,-3.9375z" fill="#8d6c9f"/></g></g><g><g id="Layer_1"><path d="M248.0625,220.5c0,7.875 -3.83119,23.562 -3.969,24.11719c-0.49219,1.99237 -1.87425,3.44531 -3.906,3.44531h-39.375h-27.5625c-2.36644,0 -4.20131,-2.07506 -3.906,-4.42575c0,0 3.906,-15.26175 3.906,-23.13675c-4.92187,0 -5.90625,3.9375 -13.78125,3.9375c-7.61119,0 -13.78125,-6.17006 -13.78125,-13.78125c0,-7.61119 6.17006,-13.78125 13.78125,-13.78125c7.875,0 8.85938,3.9375 13.78125,3.9375c0,-7.875 -3.906,-27.07425 -3.906,-27.07425c-0.29531,-2.35069 1.53956,-4.42575 3.906,-4.42575c0,0 15.75,3.9375 23.625,3.9375c0,-4.92187 -3.9375,-5.90625 -3.9375,-13.78125c0,-7.61119 6.17006,-13.78125 13.78125,-13.78125c7.61119,0 13.78125,6.17006 13.78125,13.78125c0,7.875 -3.9375,8.85938 -3.9375,13.78125c7.875,0 23.625,-3.9375 23.625,-3.9375c2.03175,0 3.57131,1.5435 3.90994,3.44531c0.09844,0.56306 3.96506,20.17969 3.96506,28.05469c-4.92187,0 -5.90625,-3.9375 -13.78125,-3.9375c-7.61119,0 -13.78125,6.17006 -13.78125,13.78125c0,7.61119 6.17006,13.78125 13.78125,13.78125c7.875,0 8.85938,-3.9375 13.78125,-3.9375z" fill="#72caaf"/><path d="M240.1875,252h-66.9375c-2.25619,0 -4.40606,-0.96862 -5.90231,-2.66175c-1.49231,-1.69313 -2.19319,-3.94538 -1.90969,-6.18975c0.01969,-0.16538 0.05119,-0.32681 0.09056,-0.49219c0.0315,-0.11419 2.30738,-9.06806 3.31537,-16.46663c-2.06325,1.05919 -4.86675,2.18531 -9.37519,2.18531c-9.76894,0 -17.71875,-7.94981 -17.71875,-17.71875c0,-9.76894 7.94981,-17.71875 17.71875,-17.71875c4.55175,0 7.371,1.14975 9.43425,2.21681c-0.9765,-8.57194 -3.39019,-20.47894 -3.41775,-20.62856c-0.33075,-2.54363 0.37012,-4.79981 1.86244,-6.489c1.49625,-1.69312 3.64612,-2.66175 5.90231,-2.66175c0.32288,0 0.64181,0.03938 0.95288,0.11813c0.11812,0.0315 9.43425,2.34281 16.98244,3.35475c-1.05919,-2.05931 -2.18531,-4.86675 -2.18531,-9.37912c0,-9.76894 7.94981,-17.71875 17.71875,-17.71875c9.76894,0 17.71875,7.94981 17.71875,17.71875c0,4.51237 -1.12613,7.31981 -2.18531,9.37912c7.54819,-1.01194 16.86038,-3.32325 16.98244,-3.35475c0.31106,-0.07875 0.63,-0.11812 0.95288,-0.11812c3.82331,0 7.09537,2.81531 7.78444,6.69375c1.53956,8.05219 4.02806,22.03031 4.02806,28.74375c0,2.1735 -1.76006,3.9375 -3.9375,3.9375c-3.1815,0 -5.31956,-1.16944 -7.03631,-2.10656c-1.79944,-0.98437 -3.35475,-1.83094 -6.74494,-1.83094c-5.42981,0 -9.84375,4.41788 -9.84375,9.84375c0,5.42588 4.41394,9.84375 9.84375,9.84375c3.39019,0 4.9455,-0.84656 6.74494,-1.83094c1.71675,-0.93712 3.85481,-2.10656 7.03631,-2.10656c2.17744,0 3.9375,1.764 3.9375,3.9375c0,8.57194 -4.04381,24.90469 -4.08319,25.07006c-0.96469,3.90206 -4.0005,6.42994 -7.72931,6.42994zM173.25,244.125h66.8745c0.00394,-0.04725 0.08269,-0.19294 0.14569,-0.45281c0.74812,-3.01612 2.54362,-11.02106 3.39412,-17.48644c-2.05931,1.05919 -4.86675,2.18925 -9.38306,2.18925c-9.76894,0 -17.71875,-7.94981 -17.71875,-17.71875c0,-9.76894 7.94981,-17.71875 17.71875,-17.71875c4.55569,0 7.371,1.14975 9.43819,2.21681c-0.58275,-5.23294 -1.77581,-12.68269 -3.42562,-21.28612c0,-0.01575 -0.07481,-0.40162 -0.07875,-0.41738v-0.09056c-3.57525,0.85837 -16.43512,3.82725 -23.65256,3.82725c-2.17744,0 -3.9375,-1.764 -3.9375,-3.9375c0,-3.17756 1.16944,-5.31956 2.10656,-7.03631c0.98044,-1.79944 1.83094,-3.35081 1.83094,-6.74494c0,-5.42588 -4.41394,-9.84375 -9.84375,-9.84375c-5.42981,0 -9.84375,4.41787 -9.84375,9.84375c0,3.39413 0.8505,4.9455 1.83094,6.74494c0.93712,1.71675 2.10656,3.85875 2.10656,7.03631c0,2.1735 -1.76006,3.9375 -3.9375,3.9375c-7.182,0 -19.94344,-2.93738 -23.59744,-3.81544c0.35438,1.70888 3.90994,19.55363 3.90994,27.44044c0,2.1735 -1.76006,3.9375 -3.9375,3.9375c-3.1815,0 -5.31956,-1.16944 -7.03631,-2.10656c-1.79944,-0.98437 -3.35475,-1.83094 -6.74494,-1.83094c-5.42981,0 -9.84375,4.41788 -9.84375,9.84375c0,5.42588 4.41394,9.84375 9.84375,9.84375c3.39019,0 4.9455,-0.84656 6.74494,-1.83094c1.71675,-0.93712 3.85481,-2.10656 7.03631,-2.10656c2.17744,0 3.9375,1.764 3.9375,3.9375c0,7.54819 -3.24844,20.86087 -3.9375,23.625z" fill="#8d6c9f"/></g></g></g></g></svg>
